<mxfile host="app.diagrams.net" modified="2024-05-14T12:04:35.893Z" agent="Mozilla/5.0 (Windows NT 10.0; Win64; x64) AppleWebKit/537.36 (KHTML, like Gecko) Chrome/124.0.0.0 Safari/537.36" etag="uoqbytlLn9TdUHnJrBqX" version="24.4.0" type="device">
  <diagram name="Page-1" id="yC_jvM2PmXSipSFUg2g3">
    <mxGraphModel dx="1050" dy="522" grid="1" gridSize="10" guides="1" tooltips="1" connect="1" arrows="1" fold="1" page="1" pageScale="1" pageWidth="850" pageHeight="1100" math="0" shadow="0">
      <root>
        <mxCell id="0" />
        <mxCell id="1" parent="0" />
        <mxCell id="HHdaW7-fVpACaV3yrXjb-13" value="" style="edgeStyle=none;rounded=0;orthogonalLoop=1;jettySize=auto;html=1;strokeColor=default;align=center;verticalAlign=middle;fontFamily=Helvetica;fontSize=11;fontColor=default;labelBackgroundColor=default;endArrow=none;endFill=0;" edge="1" parent="1" source="HHdaW7-fVpACaV3yrXjb-1" target="HHdaW7-fVpACaV3yrXjb-5">
          <mxGeometry relative="1" as="geometry" />
        </mxCell>
        <mxCell id="HHdaW7-fVpACaV3yrXjb-14" style="edgeStyle=none;rounded=0;orthogonalLoop=1;jettySize=auto;html=1;exitX=1;exitY=0;exitDx=0;exitDy=0;entryX=0;entryY=1;entryDx=0;entryDy=0;strokeColor=default;align=center;verticalAlign=middle;fontFamily=Helvetica;fontSize=11;fontColor=default;labelBackgroundColor=default;endArrow=none;endFill=0;" edge="1" parent="1" source="HHdaW7-fVpACaV3yrXjb-1" target="HHdaW7-fVpACaV3yrXjb-3">
          <mxGeometry relative="1" as="geometry" />
        </mxCell>
        <mxCell id="HHdaW7-fVpACaV3yrXjb-15" style="edgeStyle=none;rounded=0;orthogonalLoop=1;jettySize=auto;html=1;entryX=0;entryY=0.5;entryDx=0;entryDy=0;strokeColor=default;align=center;verticalAlign=middle;fontFamily=Helvetica;fontSize=11;fontColor=default;labelBackgroundColor=default;endArrow=none;endFill=0;" edge="1" parent="1" source="HHdaW7-fVpACaV3yrXjb-1" target="HHdaW7-fVpACaV3yrXjb-4">
          <mxGeometry relative="1" as="geometry" />
        </mxCell>
        <mxCell id="HHdaW7-fVpACaV3yrXjb-16" value="" style="edgeStyle=none;rounded=0;orthogonalLoop=1;jettySize=auto;html=1;strokeColor=default;align=center;verticalAlign=middle;fontFamily=Helvetica;fontSize=11;fontColor=default;labelBackgroundColor=default;endArrow=none;endFill=0;" edge="1" parent="1" source="HHdaW7-fVpACaV3yrXjb-1" target="HHdaW7-fVpACaV3yrXjb-6">
          <mxGeometry relative="1" as="geometry" />
        </mxCell>
        <mxCell id="HHdaW7-fVpACaV3yrXjb-17" value="" style="edgeStyle=none;rounded=0;orthogonalLoop=1;jettySize=auto;html=1;strokeColor=default;align=center;verticalAlign=middle;fontFamily=Helvetica;fontSize=11;fontColor=default;labelBackgroundColor=default;endArrow=none;endFill=0;" edge="1" parent="1" source="HHdaW7-fVpACaV3yrXjb-1" target="HHdaW7-fVpACaV3yrXjb-9">
          <mxGeometry relative="1" as="geometry" />
        </mxCell>
        <mxCell id="HHdaW7-fVpACaV3yrXjb-19" style="edgeStyle=none;rounded=0;orthogonalLoop=1;jettySize=auto;html=1;strokeColor=default;align=center;verticalAlign=middle;fontFamily=Helvetica;fontSize=11;fontColor=default;labelBackgroundColor=default;endArrow=none;endFill=0;" edge="1" parent="1" source="HHdaW7-fVpACaV3yrXjb-1" target="HHdaW7-fVpACaV3yrXjb-8">
          <mxGeometry relative="1" as="geometry" />
        </mxCell>
        <mxCell id="HHdaW7-fVpACaV3yrXjb-20" style="edgeStyle=none;rounded=0;orthogonalLoop=1;jettySize=auto;html=1;strokeColor=default;align=center;verticalAlign=middle;fontFamily=Helvetica;fontSize=11;fontColor=default;labelBackgroundColor=default;endArrow=none;endFill=0;" edge="1" parent="1" source="HHdaW7-fVpACaV3yrXjb-1" target="HHdaW7-fVpACaV3yrXjb-7">
          <mxGeometry relative="1" as="geometry" />
        </mxCell>
        <mxCell id="HHdaW7-fVpACaV3yrXjb-1" value="User" style="whiteSpace=wrap;html=1;align=center;" vertex="1" parent="1">
          <mxGeometry x="370" y="250" width="100" height="40" as="geometry" />
        </mxCell>
        <mxCell id="HHdaW7-fVpACaV3yrXjb-11" style="edgeStyle=orthogonalEdgeStyle;rounded=0;orthogonalLoop=1;jettySize=auto;html=1;exitX=0.5;exitY=1;exitDx=0;exitDy=0;entryX=0.5;entryY=0;entryDx=0;entryDy=0;endArrow=none;endFill=0;" edge="1" parent="1" source="HHdaW7-fVpACaV3yrXjb-2" target="HHdaW7-fVpACaV3yrXjb-1">
          <mxGeometry relative="1" as="geometry" />
        </mxCell>
        <mxCell id="HHdaW7-fVpACaV3yrXjb-2" value="user_&lt;span style=&quot;background-color: initial;&quot;&gt;id&lt;/span&gt;" style="ellipse;whiteSpace=wrap;html=1;align=center;fontStyle=4" vertex="1" parent="1">
          <mxGeometry x="370" y="170" width="100" height="40" as="geometry" />
        </mxCell>
        <mxCell id="HHdaW7-fVpACaV3yrXjb-3" value="first_name" style="ellipse;whiteSpace=wrap;html=1;align=center;" vertex="1" parent="1">
          <mxGeometry x="480" y="200" width="100" height="40" as="geometry" />
        </mxCell>
        <mxCell id="HHdaW7-fVpACaV3yrXjb-4" value="last_name" style="ellipse;whiteSpace=wrap;html=1;align=center;" vertex="1" parent="1">
          <mxGeometry x="550" y="250" width="100" height="40" as="geometry" />
        </mxCell>
        <mxCell id="HHdaW7-fVpACaV3yrXjb-5" value="national_code" style="ellipse;whiteSpace=wrap;html=1;align=center;" vertex="1" parent="1">
          <mxGeometry x="480" y="300" width="100" height="40" as="geometry" />
        </mxCell>
        <mxCell id="HHdaW7-fVpACaV3yrXjb-6" value="email" style="ellipse;whiteSpace=wrap;html=1;align=center;" vertex="1" parent="1">
          <mxGeometry x="375" y="330" width="100" height="40" as="geometry" />
        </mxCell>
        <mxCell id="HHdaW7-fVpACaV3yrXjb-7" value="password" style="ellipse;whiteSpace=wrap;html=1;align=center;" vertex="1" parent="1">
          <mxGeometry x="260" y="300" width="100" height="40" as="geometry" />
        </mxCell>
        <mxCell id="HHdaW7-fVpACaV3yrXjb-8" value="phone_number" style="ellipse;whiteSpace=wrap;html=1;align=center;" vertex="1" parent="1">
          <mxGeometry x="190" y="250" width="100" height="40" as="geometry" />
        </mxCell>
        <mxCell id="HHdaW7-fVpACaV3yrXjb-9" value="address" style="ellipse;whiteSpace=wrap;html=1;align=center;" vertex="1" parent="1">
          <mxGeometry x="260" y="200" width="100" height="40" as="geometry" />
        </mxCell>
      </root>
    </mxGraphModel>
  </diagram>
</mxfile>
